<?xml version="1.0" encoding="UTF-8"?><svg id="Layer_4" xmlns="http://www.w3.org/2000/svg" width="142" height="142" viewBox="0 0 142 142"><defs><style>.cls-1{fill:#e8e8e8;stroke-width:0px;}</style></defs><path class="cls-1" d="M79.37,47.7L97.78,5.24l-9.95-3.23-10.07,45.17c.55.16,1.09.33,1.62.52"/><path class="cls-1" d="M86.18,51.47l30.63-34.7-8.47-6.15-23.54,39.85c.47.32.93.65,1.37,1"/><path class="cls-1" d="M91.5,57.14l39.85-23.54-6.15-8.47-34.7,30.63c.35.44.68.9,1,1.37"/><path class="cls-1" d="M94.8,64.18l45.17-10.07-3.23-9.95-42.47,18.4c.19.53.37,1.07.53,1.62"/><path class="cls-1" d="M95.75,70.2c.01.29.02.59.02.88,0,.27,0,.55-.02.82l46.08,4.38v-10.46l-46.08,4.38Z"/><path class="cls-1" d="M94.82,77.92c-.16.55-.33,1.09-.52,1.62l42.47,18.4,3.23-9.95-45.17-10.07Z"/><path class="cls-1" d="M91.53,84.97c-.32.47-.65.93-1,1.37l34.7,30.63,6.15-8.47-39.85-23.54Z"/><path class="cls-1" d="M86.23,90.66c-.45.35-.9.68-1.37,1l23.54,39.85,8.47-6.15-30.63-34.7Z"/><path class="cls-1" d="M79.44,94.44c-.53.19-1.07.37-1.62.53l10.07,45.17,9.95-3.23-18.41-42.47Z"/><path class="cls-1" d="M70.92,95.93c-.27,0-.55,0-.82-.02l-4.38,46.08h10.46l-4.38-46.08c-.29.01-.59.02-.88.02"/><path class="cls-1" d="M62.46,94.46l-18.4,42.47,9.95,3.23,10.07-45.17c-.55-.16-1.09-.33-1.62-.52"/><path class="cls-1" d="M55.66,90.7l-30.63,34.7,8.47,6.15,23.54-39.85c-.47-.32-.93-.65-1.37-1"/><path class="cls-1" d="M50.34,85.02l-39.85,23.54,6.15,8.47,34.7-30.63c-.35-.44-.68-.9-1-1.37"/><path class="cls-1" d="M47.04,77.98L1.86,88.05l3.23,9.95,42.47-18.4c-.19-.53-.37-1.07-.53-1.62"/><path class="cls-1" d="M46.07,71.08c0-.27,0-.55.02-.82L0,65.88v10.46l46.08-4.38c-.01-.29-.02-.59-.02-.88"/><path class="cls-1" d="M47.54,62.63L5.08,44.22l-3.23,9.95,45.17,10.07c.16-.55.33-1.09.52-1.62"/><path class="cls-1" d="M51.3,55.82L16.6,25.19l-6.15,8.47,39.85,23.54c.32-.47.65-.93,1-1.37"/><path class="cls-1" d="M56.98,50.5L33.44,10.65l-8.47,6.15,30.63,34.7c.44-.35.9-.68,1.37-1"/><path class="cls-1" d="M64.02,47.2L53.95,2.03l-9.95,3.23,18.4,42.47c.53-.19,1.07-.37,1.62-.53"/><path class="cls-1" d="M70.92,46.23c.27,0,.55,0,.82.02L76.12.16h-10.46l4.38,46.08c.29-.01.59-.02.88-.02"/></svg>