<?xml version="1.0" encoding="UTF-8"?><svg id="Layer_1" xmlns="http://www.w3.org/2000/svg" width="133" height="28" viewBox="0 0 133 28"><defs><style>.cls-1{fill:#e8e8e8;stroke-width:0px;}</style></defs><path class="cls-1" d="M7,.01H0v5.87h6.92c4.49,0,8.12,3.64,8.12,8.12s-3.64,8.12-8.12,8.12H0v5.87h7c7.73,0,14-6.27,14-13.99S14.73,0,7,0h0Z"/><path class="cls-1" d="M37,.01h7v5.87h-6.92c-4.49,0-8.12,3.64-8.12,8.12s3.64,8.12,8.12,8.12h6.92v5.87h-7c-7.73,0-14-6.27-14-13.99S29.27,0,37,0h0Z"/><path class="cls-1" d="M50.13,28h-1.13L70.87,0h1.13l-21.87,28Z"/><path class="cls-1" d="M82.07,22.03c1.48,2.27,4.22,3.33,7.83,3.48,3.43.13,10.41.03,14.1-.22-.25.56-.66,1.64-.75,2.35-3.43.13-9.88.18-13.34.06-4.09-.15-6.89-1.27-8.9-3.66-1.51,1.31-3.08,2.63-4.76,3.97l-1.26-2.32c1.45-.93,3.2-2.24,4.78-3.53v-7.85h-4.37v-2.17h6.67v9.89h-.01ZM81.1,7.04c-.97-1.49-3.3-3.53-5.35-4.9l1.74-1.39c2.02,1.31,4.37,3.28,5.48,4.77l-1.86,1.52ZM91.48,8.29c.16-.78.35-1.64.47-2.45h-8.34v-1.92h5.32c-.41-.96-1.2-2.2-1.98-3.16l1.79-.68c.97.99,1.95,2.45,2.33,3.51l-.82.35h5.12c.75-1.11,1.69-2.83,2.2-3.94l2.33.58c-.66,1.16-1.45,2.39-2.15,3.35h5.69v1.92h-8.96c-.28.83-.59,1.71-.88,2.45h7.39v14.64h-14.92v-14.65h5.39ZM98.72,10.06h-10.41v2.57h10.41v-2.57ZM98.72,14.31h-10.41v2.57h10.41v-2.57ZM98.72,18.55h-10.41v2.6h10.41v-2.6Z"/><path class="cls-1" d="M114.18,17.85c-3.18,1.57-6.62,3.2-9.26,4.43l-.92-2.25c1.2-.5,2.69-1.11,4.28-1.82v-9.64h-3.69v-2.15h3.69V0h2.18v6.41h3.41v2.15h-3.41v8.65l3.21-1.42.51,2.03v.03ZM120.05,14.3c-.41.73-.85,1.48-1.36,2.15h13.56s-.03.62-.1.93c-.47,6.34-.98,8.74-1.87,9.64-.47.53-1.05.68-1.77.77-.69.03-1.87.03-3.13-.03,0-.55-.23-1.38-.54-1.85,1.16.1,2.2.12,2.69.12.44,0,.72-.03.95-.35.54-.55,1-2.5,1.41-7.33h-2.46c-1.26,3.66-3.72,7.64-6.43,9.64-.38-.46-1.1-.98-1.67-1.33,2.56-1.66,4.85-4.99,6.15-8.32h-3.05c-1.67,3.18-4.77,6.53-7.66,8.32-.35-.5-.97-1.05-1.54-1.42,2.62-1.38,5.39-4.16,7.1-6.89h-3.18c-1.26,1.38-2.69,2.58-4.1,3.51-.31-.37-1.13-1.11-1.61-1.42,2.49-1.45,4.77-3.63,6.24-6.16h-4.41v-1.93h19.74v1.93h-12.95ZM130.77,10.64h-14.41V.69h14.41v9.95ZM128.59,2.42h-10.08v2.43h10.08v-2.43ZM128.59,6.45h-10.08v2.46h10.08v-2.46Z"/></svg>