<?xml version="1.0" encoding="UTF-8"?><svg id="Layer_1" xmlns="http://www.w3.org/2000/svg" width="100" height="64" viewBox="0 0 100 64"><defs><style>.cls-1{fill:#fff;stroke-width:0px;}</style></defs><path class="cls-1" d="M15.85.34H0v13.3h15.64c10.14,0,18.36,8.22,18.36,18.36s-8.22,18.36-18.36,18.36H0v13.3h15.85c17.47,0,31.64-14.16,31.64-31.64v-.04C47.49,14.51,33.32.34,15.85.34"/><path class="cls-1" d="M84.15.34h15.85v13.3h-15.64c-10.14,0-18.36,8.22-18.36,18.36s8.22,18.36,18.36,18.36h15.64v13.3h-15.85c-17.47,0-31.64-14.16-31.64-31.64v-.04C52.52,14.51,66.68.34,84.15.34"/></svg>