<?xml version="1.0" encoding="UTF-8"?><svg id="Layer_1" xmlns="http://www.w3.org/2000/svg" width="155" height="76" xmlns:xlink="http://www.w3.org/1999/xlink" viewBox="0 0 155 76"><defs><style>.cls-1{mask:url(#mask);}.cls-2{fill:#fff;}.cls-2,.cls-3{stroke-width:0px;}.cls-3{fill:#e8e8e8;}</style><mask id="mask" x="0" y="0" width="86" height="76" maskUnits="userSpaceOnUse"><g id="mask0_109_4"><path class="cls-2" d="M86,0H0v76h86V0Z"/></g></mask></defs><g class="cls-1"><path class="cls-3" d="M47.81,57c0-10.49,8.55-19.01,19.1-19.01s19.1,8.51,19.1,19.01-8.55,19.01-19.1,19.01-19.1-8.51-19.1-19.01Z"/><path class="cls-3" d="M28.76,37.96v38.01c10.54,0,19.09-8.51,19.09-19.01v-19.01h-19.09Z"/><path class="cls-3" d="M0,0c10.54,0,19.1,8.51,19.1,19.01S10.54,38.01,0,38.01V0Z"/><path class="cls-3" d="M40.41,12.75l4.96-11.38-2.68-.87-2.71,12.11c.15.04.29.09.44.14"/><path class="cls-3" d="M42.24,13.76l8.25-9.3-2.28-1.65-6.34,10.68c.13.09.25.17.37.27"/><path class="cls-3" d="M43.67,15.28l10.73-6.31-1.66-2.27-9.35,8.21c.09.12.18.24.27.37Z"/><path class="cls-3" d="M44.56,17.17l12.17-2.7-.87-2.67-11.44,4.93c.05.14.1.29.14.43"/><path class="cls-3" d="M44.82,18.78c0,.08,0,.16,0,.24,0,.07,0,.15,0,.22l12.41,1.18v-2.81l-12.41,1.18h0Z"/><path class="cls-3" d="M44.57,20.85c-.04.15-.09.29-.14.43l11.43,4.93.87-2.67-12.17-2.7h0Z"/><path class="cls-3" d="M43.68,22.74c-.09.13-.18.25-.27.37l9.34,8.21,1.66-2.27-10.73-6.31h0Z"/><path class="cls-3" d="M42.25,24.26c-.12.09-.24.18-.37.27l6.34,10.68,2.28-1.65-8.25-9.3Z"/><path class="cls-3" d="M40.42,25.27c-.14.05-.29.1-.43.14l2.71,12.11,2.68-.87-4.96-11.38h0Z"/><path class="cls-3" d="M38.13,25.68c-.07,0-.15,0-.22,0l-1.18,12.35h2.82l-1.18-12.35c-.08,0-.16,0-.24,0"/><path class="cls-3" d="M35.85,25.28l-4.96,11.38,2.68.87,2.71-12.11c-.15-.04-.29-.09-.44-.14"/><path class="cls-3" d="M34.02,24.27l-8.25,9.3,2.28,1.65,6.34-10.68c-.13-.09-.25-.17-.37-.27Z"/><path class="cls-3" d="M32.59,22.75l-10.73,6.31,1.66,2.27,9.35-8.21c-.09-.12-.18-.24-.27-.37Z"/><path class="cls-3" d="M31.7,20.86l-12.17,2.7.87,2.67,11.43-4.93c-.05-.14-.1-.29-.14-.43"/><path class="cls-3" d="M31.44,19.02c0-.07,0-.14,0-.22l-12.41-1.18v2.81l12.41-1.18c0-.08,0-.16,0-.24"/><path class="cls-3" d="M31.84,16.75l-11.43-4.93-.87,2.67,12.17,2.7c.04-.15.09-.29.14-.43Z"/><path class="cls-3" d="M32.85,14.92l-9.34-8.21-1.66,2.27,10.73,6.31c.09-.13.18-.25.27-.37"/><path class="cls-3" d="M34.38,13.5l-6.34-10.68-2.28,1.65,8.25,9.3c.12-.09.24-.18.37-.27Z"/><path class="cls-3" d="M36.27,12.62l-2.71-12.11-2.68.87,4.96,11.38c.14-.05.29-.1.43-.14"/><path class="cls-3" d="M38.13,12.36c.07,0,.15,0,.22,0L39.53,0h-2.82l1.18,12.35c.08,0,.16,0,.24,0Z"/></g><path class="cls-3" d="M108.21,75.81v-9.44h.93v4.13c.49-.97,1.38-1.55,2.52-1.55,1.81,0,3.12,1.47,3.12,3.52s-1.31,3.53-3.12,3.53c-1.15,0-2.04-.58-2.52-1.56v1.38h-.93ZM109.08,72.47c0,1.66.97,2.76,2.37,2.76s2.39-1.16,2.39-2.76-1.01-2.77-2.39-2.77-2.37,1.12-2.37,2.77Z"/><path class="cls-3" d="M103.1,75.96c-1.25,0-2.17-.67-2.17-1.85,0-1.24,1.05-1.89,3.13-2.12l1.46-.16v-.32c0-1.15-.62-1.83-1.7-1.83-1,0-1.69.62-1.79,1.67l-.89-.03c.13-1.44,1.19-2.4,2.7-2.4s2.6,1.01,2.6,2.63v2.4c0,.73.09,1.42.19,1.86h-.9c-.08-.32-.15-.76-.15-1.62-.26,1.07-1.23,1.77-2.47,1.77ZM101.85,74.04c0,.86.67,1.27,1.51,1.27,1.23,0,2.17-.93,2.17-2.25v-.66l-1.4.18c-1.5.18-2.28.57-2.28,1.47Z"/><path class="cls-3" d="M94,75.81v-9.44h.97v8.65h4.84v.8h-5.81Z"/><path class="cls-3" d="M148.48,61.76v-6.69h.93l-.04,1.98c.23-1.38,1.01-2.17,2.33-2.17,1.48,0,2.4,1.04,2.4,2.76v4.11h-.93v-3.98c0-1.39-.63-2.14-1.77-2.14-1.31,0-2,.98-2,2.78v3.34h-.93Z"/><path class="cls-3" d="M143.63,61.96c-1.94,0-3.3-1.47-3.3-3.55s1.36-3.55,3.3-3.55,3.3,1.47,3.3,3.55-1.36,3.55-3.3,3.55ZM141.26,58.42c0,1.63.97,2.76,2.37,2.76s2.37-1.13,2.37-2.76-.97-2.76-2.37-2.76-2.37,1.13-2.37,2.76Z"/><path class="cls-3" d="M137.86,61.76v-6.69h.93v6.69h-.93ZM137.56,52.99c0-.42.32-.76.75-.76s.76.34.76.76c0,.45-.32.77-.76.77s-.75-.32-.75-.77Z"/><path class="cls-3" d="M136.23,61.68c-1.16.42-2.6.13-2.6-1.83v-4.01h-1.36v-.77h1.36v-1.66h.93v1.66h1.83v.77h-1.83v3.95c0,1.29.88,1.43,1.63,1.12l.04.77Z"/><path class="cls-3" d="M127.84,61.91c-1.25,0-2.17-.67-2.17-1.85,0-1.24,1.05-1.89,3.13-2.12l1.46-.16v-.32c0-1.15-.62-1.83-1.7-1.83-1,0-1.69.62-1.79,1.67l-.89-.03c.14-1.44,1.19-2.4,2.7-2.4s2.6,1.01,2.6,2.63v2.4c0,.73.09,1.42.19,1.86h-.9c-.08-.32-.15-.76-.15-1.62-.26,1.07-1.23,1.77-2.47,1.77ZM126.58,59.99c0,.86.68,1.27,1.51,1.27,1.23,0,2.17-.93,2.17-2.25v-.66l-1.4.18c-1.5.18-2.28.57-2.28,1.47Z"/><path class="cls-3" d="M121.27,61.76l-2.67-6.69h.97l2.2,5.73,2.23-5.73h.93l-2.67,6.69h-.99Z"/><path class="cls-3" d="M114.67,61.96c-1.94,0-3.31-1.47-3.31-3.55s1.36-3.55,3.31-3.55,3.3,1.47,3.3,3.55-1.36,3.55-3.3,3.55ZM112.29,58.42c0,1.63.97,2.76,2.37,2.76s2.37-1.13,2.37-2.76-.97-2.76-2.37-2.76-2.37,1.13-2.37,2.76Z"/><path class="cls-3" d="M104.27,61.76v-6.69h.93l-.04,1.98c.23-1.38,1.01-2.17,2.33-2.17,1.48,0,2.4,1.04,2.4,2.76v4.11h-.93v-3.98c0-1.39-.63-2.14-1.77-2.14-1.31,0-2,.98-2,2.78v3.34h-.93Z"/><path class="cls-3" d="M96.93,61.76v-6.69h.93l-.04,1.98c.23-1.38,1.01-2.17,2.33-2.17,1.48,0,2.4,1.04,2.4,2.76v4.11h-.93v-3.98c0-1.39-.63-2.14-1.77-2.14-1.31,0-2,.98-2,2.78v3.34h-.93Z"/><path class="cls-3" d="M94,61.76v-9.44h.96v9.44h-.96Z"/><path class="cls-3" d="M141.13,47.94c-1.9,0-3.28-1.51-3.28-3.57s1.38-3.57,3.28-3.57c2.29,0,3.32,2.13,3.12,3.79h-5.46c.01,1.52,1,2.62,2.36,2.62,1.04,0,1.92-.61,2.2-1.51l.78.12c-.31,1.23-1.48,2.13-2.99,2.13ZM138.8,43.89h4.56c0-1.36-.89-2.39-2.23-2.39s-2.24.98-2.33,2.39Z"/><path class="cls-3" d="M133.57,47.71l-2.67-6.69h.97l2.2,5.73,2.23-5.73h.93l-2.67,6.69h-.99Z"/><path class="cls-3" d="M128.68,47.71v-6.69h.93v6.69h-.93ZM128.38,38.94c0-.42.32-.76.76-.76s.76.34.76.76c0,.45-.32.77-.76.77s-.76-.32-.76-.77Z"/><path class="cls-3" d="M127.05,47.63c-1.16.42-2.6.13-2.6-1.83v-4.01h-1.36v-.77h1.36v-1.66h.93v1.66h1.83v.77h-1.83v3.95c0,1.29.88,1.43,1.63,1.12l.04.77Z"/><path class="cls-3" d="M118.66,47.86c-1.26,0-2.17-.67-2.17-1.85,0-1.24,1.05-1.89,3.13-2.12l1.46-.16v-.32c0-1.15-.62-1.83-1.7-1.83-1,0-1.69.62-1.79,1.67l-.89-.03c.13-1.44,1.19-2.4,2.7-2.4s2.6,1.01,2.6,2.63v2.4c0,.73.09,1.42.19,1.86h-.9c-.08-.32-.15-.76-.15-1.62-.26,1.07-1.23,1.77-2.47,1.77ZM117.41,45.94c0,.86.68,1.27,1.51,1.27,1.23,0,2.17-.93,2.17-2.25v-.66l-1.4.18c-1.5.18-2.28.57-2.28,1.47Z"/><path class="cls-3" d="M112.14,47.94c-1.9,0-3.28-1.51-3.28-3.57s1.38-3.57,3.28-3.57c2.29,0,3.32,2.13,3.12,3.79h-5.46c.01,1.52,1,2.62,2.36,2.62,1.04,0,1.92-.61,2.2-1.51l.78.12c-.31,1.23-1.48,2.13-2.99,2.13ZM109.81,43.89h4.56c0-1.36-.89-2.39-2.23-2.39s-2.24.98-2.33,2.39Z"/><path class="cls-3" d="M104.68,47.71v-6.69h.93l-.03,2.16c.27-1.73,1.46-2.39,2.64-2.2v.9c-1.52-.19-2.62.86-2.62,2.9v2.93h-.93Z"/><path class="cls-3" d="M98.71,47.98c-2.71,0-4.71-2.1-4.71-4.99s2-4.99,4.71-4.99c2.28,0,4.1,1.5,4.3,3.55l-.94.08c-.19-1.62-1.61-2.78-3.36-2.78-2.14,0-3.72,1.74-3.72,4.14s1.58,4.14,3.72,4.14c1.77,0,3.21-1.23,3.4-2.91l.94.08c-.22,2.13-2.05,3.68-4.34,3.68Z"/></svg>