<?xml version="1.0" encoding="UTF-8"?><svg id="Layer_1" xmlns="http://www.w3.org/2000/svg" width="165" height="220" xmlns:xlink="http://www.w3.org/1999/xlink" viewBox="0 0 165 220"><defs><style>.cls-1{clip-path:url(#clippath);}.cls-2{fill:none;}.cls-2,.cls-3{stroke-width:0px;}.cls-4{mask:url(#mask);}.cls-3{fill:#fff;}</style><clipPath id="clippath"><rect class="cls-2" width="165" height="220"/></clipPath><mask id="mask" x="0" y="0" width="165.01" height="220.01" maskUnits="userSpaceOnUse"><g id="mask0_351_1626"><path class="cls-3" d="M165,0H0v220h165V0Z"/></g></mask></defs><g class="cls-1"><g class="cls-4"><path class="cls-3" d="M54.91,164.99c0-30.38,24.64-55.02,55.05-55.02s55.05,24.63,55.05,55.02-24.64,55.02-55.05,55.02-55.05-24.63-55.05-55.02Z"/><path class="cls-3" d="M0,109.88v110.02c30.4,0,55.05-24.63,55.05-55.02v-55.01H0Z"/><path class="cls-3" d="M0,0c30.4,0,55.05,24.63,55.05,55.02S30.4,110.02,0,110.02V0Z"/><path class="cls-3" d="M116.49,36.91l14.29-32.94-7.72-2.51-7.82,35.05c.43.12.85.26,1.26.4"/><path class="cls-3" d="M121.77,39.82l23.78-26.92-6.57-4.77-18.27,30.92c.37.25.72.51,1.06.78"/><path class="cls-3" d="M125.9,44.23l30.94-18.26-4.78-6.57-26.94,23.77c.27.34.53.7.78,1.06Z"/><path class="cls-3" d="M128.47,49.69l35.07-7.81-2.51-7.72-32.97,14.28c.15.41.29.83.41,1.25"/><path class="cls-3" d="M129.21,54.36c0,.23.02.46.02.68,0,.21,0,.42,0,.64l35.77,3.4v-8.12l-35.78,3.4h0Z"/><path class="cls-3" d="M128.48,60.35c-.12.43-.26.85-.4,1.26l32.96,14.28,2.51-7.72-35.07-7.81h0Z"/><path class="cls-3" d="M125.92,65.82c-.25.37-.51.72-.78,1.06l26.94,23.77,4.77-6.57-30.94-18.26h0Z"/><path class="cls-3" d="M121.81,70.23c-.35.27-.7.53-1.07.78l18.27,30.92,6.57-4.77-23.78-26.93Z"/><path class="cls-3" d="M116.54,73.16c-.41.15-.83.29-1.25.41l7.81,35.05,7.72-2.51-14.29-32.95h0Z"/><path class="cls-3" d="M109.93,74.33c-.21,0-.42,0-.64,0l-3.41,35.75h8.13l-3.41-35.76c-.22,0-.46.02-.68.02"/><path class="cls-3" d="M103.36,73.18l-14.29,32.94,7.72,2.51,7.82-35.05c-.43-.12-.85-.26-1.26-.4"/><path class="cls-3" d="M98.08,70.26l-23.78,26.93,6.57,4.77,18.27-30.92c-.37-.25-.72-.51-1.07-.78Z"/><path class="cls-3" d="M93.95,65.86l-30.94,18.26,4.77,6.57,26.95-23.77c-.27-.34-.53-.7-.78-1.06Z"/><path class="cls-3" d="M91.38,60.39l-35.07,7.81,2.51,7.72,32.96-14.28c-.15-.41-.29-.83-.41-1.25"/><path class="cls-3" d="M90.63,55.05c0-.21,0-.42,0-.64l-35.77-3.4v8.12l35.78-3.4c0-.23-.02-.46-.02-.68"/><path class="cls-3" d="M91.78,48.49l-32.96-14.28-2.51,7.73,35.07,7.81c.12-.43.26-.85.4-1.26Z"/><path class="cls-3" d="M94.69,43.2l-26.94-23.77-4.77,6.57,30.94,18.26c.25-.37.51-.72.78-1.06"/><path class="cls-3" d="M99.1,39.08l-18.27-30.92-6.57,4.77,23.78,26.93c.34-.27.7-.53,1.07-.78Z"/><path class="cls-3" d="M104.57,36.52L96.75,1.47l-7.72,2.51,14.29,32.94c.41-.15.83-.29,1.25-.41"/><path class="cls-3" d="M109.93,35.76c.21,0,.42,0,.64,0L113.96.02h-8.13l3.41,35.76c.22,0,.46-.02.68-.02Z"/></g></g></svg>