<?xml version="1.0" encoding="UTF-8"?><svg id="Layer_1" xmlns="http://www.w3.org/2000/svg" width="325" height="67" xmlns:xlink="http://www.w3.org/1999/xlink" viewBox="0 0 325 67"><defs><style>.cls-1{mask:url(#mask);}.cls-2{fill:#fff;}.cls-2,.cls-3{stroke-width:0px;}.cls-3{fill:#e8e8e8;}</style><mask id="mask" x="0" y="0" width="199" height="67" maskUnits="userSpaceOnUse"><g id="mask0_109_4"><path class="cls-2" d="M199,0H0v67h199V0Z"/></g></mask></defs><g class="cls-1"><path class="cls-3" d="M0,.07C18.34.07,33.21,15.04,33.21,33.52S18.34,66.98,0,66.98V.07Z"/><path class="cls-3" d="M132.6,33.52C132.6,15.04,147.46.07,165.79.07s33.21,14.98,33.21,33.46-14.87,33.46-33.21,33.46-33.21-14.98-33.21-33.46"/><path class="cls-3" d="M99.47,0v66.91c18.34,0,33.2-14.98,33.2-33.46V0h-33.2Z"/><path class="cls-3" d="M70.26,22.51l8.62-20.03-4.66-1.53-4.71,21.32c.26.08.51.16.76.25"/><path class="cls-3" d="M73.45,24.28l14.34-16.38-3.96-2.9-11.02,18.81c.22.15.44.31.64.47Z"/><path class="cls-3" d="M75.94,26.96l18.66-11.11-2.88-3.99-16.25,14.45c.16.21.32.43.47.65Z"/><path class="cls-3" d="M77.49,30.28l21.15-4.75-1.52-4.69-19.89,8.68c.09.25.17.51.25.76Z"/><path class="cls-3" d="M77.94,33.12c0,.14,0,.27,0,.42,0,.13,0,.26,0,.39l21.58,2.07v-4.94l-21.58,2.07h0Z"/><path class="cls-3" d="M77.49,36.77c-.07.26-.15.51-.24.77l19.88,8.68,1.52-4.7-21.15-4.75Z"/><path class="cls-3" d="M75.96,40.09c-.15.22-.3.44-.47.65l16.25,14.45,2.88-3.99-18.66-11.11h0Z"/><path class="cls-3" d="M73.47,42.77c-.21.17-.42.32-.64.47l11.02,18.81,3.96-2.9-14.34-16.38Z"/><path class="cls-3" d="M70.29,44.56c-.25.09-.5.17-.76.25l4.71,21.32,4.66-1.53-8.62-20.04h0Z"/><path class="cls-3" d="M66.31,45.26c-.13,0-.25,0-.38,0l-2.05,21.74h4.9l-2.05-21.75c-.14,0-.28,0-.41,0"/><path class="cls-3" d="M62.34,44.57l-8.62,20.03,4.66,1.53,4.71-21.32c-.26-.08-.51-.16-.76-.25"/><path class="cls-3" d="M59.16,42.79l-14.34,16.38,3.96,2.9,11.02-18.81c-.22-.15-.44-.31-.64-.47Z"/><path class="cls-3" d="M56.67,40.12l-18.66,11.11,2.88,3.99,16.25-14.45c-.16-.21-.32-.43-.47-.65Z"/><path class="cls-3" d="M55.12,36.79l-21.15,4.75,1.52,4.69,19.88-8.68c-.09-.25-.17-.51-.25-.76"/><path class="cls-3" d="M54.66,33.54c0-.13,0-.26,0-.39l-21.58-2.07v4.94l21.58-2.07c0-.14,0-.27,0-.42"/><path class="cls-3" d="M55.36,29.55l-19.88-8.68-1.52,4.69,21.15,4.75c.08-.26.15-.51.24-.76Z"/><path class="cls-3" d="M57.12,26.34l-16.25-14.45-2.88,3.99,18.66,11.11c.15-.22.3-.44.47-.65"/><path class="cls-3" d="M59.78,23.83l-11.02-18.81-3.96,2.9,14.34,16.38c.21-.17.42-.32.64-.47Z"/><path class="cls-3" d="M63.08,22.27L58.36.95l-4.66,1.53,8.62,20.04c.25-.09.5-.17.76-.25"/><path class="cls-3" d="M66.31,21.81c.13,0,.25,0,.38,0L68.74.08h-4.9l2.05,21.75c.14,0,.28,0,.41,0Z"/></g><path class="cls-3" d="M244.05,66.67v-16.65h1.64v7.28c.86-1.71,2.43-2.73,4.45-2.73,3.19,0,5.49,2.59,5.49,6.21s-2.31,6.23-5.49,6.23c-2.02,0-3.59-1.02-4.45-2.76v2.43h-1.64ZM245.6,60.77c0,2.93,1.71,4.88,4.18,4.88s4.21-2.05,4.21-4.88-1.78-4.88-4.21-4.88-4.18,1.97-4.18,4.88Z"/><path class="cls-3" d="M235.05,66.93c-2.21,0-3.83-1.19-3.83-3.26,0-2.19,1.86-3.33,5.52-3.73l2.57-.29v-.57c0-2.02-1.09-3.23-3-3.23-1.76,0-2.97,1.09-3.16,2.95l-1.57-.05c.24-2.54,2.09-4.23,4.76-4.23s4.59,1.78,4.59,4.64v4.23c0,1.28.17,2.5.33,3.28h-1.59c-.14-.57-.26-1.33-.26-2.85-.45,1.88-2.16,3.12-4.35,3.12ZM232.84,63.55c0,1.52,1.19,2.24,2.66,2.24,2.16,0,3.83-1.64,3.83-3.97v-1.17l-2.47.31c-2.64.31-4.02,1-4.02,2.59Z"/><path class="cls-3" d="M219,66.67v-16.65h1.71v15.24h8.54v1.4h-10.25Z"/><path class="cls-3" d="M315.05,41.89v-11.8h1.64l-.07,3.5c.4-2.43,1.78-3.83,4.11-3.83,2.62,0,4.23,1.83,4.23,4.88v7.25h-1.64v-7.02c0-2.45-1.12-3.78-3.12-3.78-2.31,0-3.52,1.74-3.52,4.9v5.9h-1.64Z"/><path class="cls-3" d="M306.51,42.25c-3.42,0-5.83-2.59-5.83-6.25s2.4-6.25,5.83-6.25,5.83,2.59,5.83,6.25-2.4,6.25-5.83,6.25ZM302.33,36c0,2.88,1.71,4.88,4.18,4.88s4.19-2,4.19-4.88-1.71-4.88-4.19-4.88-4.18,2-4.18,4.88Z"/><path class="cls-3" d="M296.33,41.89v-11.8h1.64v11.8h-1.64ZM295.8,26.44c0-.74.57-1.33,1.33-1.33s1.33.59,1.33,1.33c0,.78-.57,1.36-1.33,1.36s-1.33-.57-1.33-1.36Z"/><path class="cls-3" d="M293.45,41.75c-2.05.74-4.59.24-4.59-3.23v-7.06h-2.4v-1.36h2.4v-2.93h1.64v2.93h3.23v1.36h-3.23v6.97c0,2.28,1.55,2.52,2.88,1.97l.07,1.36Z"/><path class="cls-3" d="M278.66,42.16c-2.21,0-3.83-1.19-3.83-3.26,0-2.19,1.86-3.33,5.52-3.73l2.57-.29v-.57c0-2.02-1.09-3.23-3-3.23-1.76,0-2.97,1.09-3.16,2.95l-1.57-.05c.24-2.54,2.09-4.23,4.76-4.23s4.59,1.78,4.59,4.64v4.23c0,1.28.17,2.5.33,3.28h-1.59c-.14-.57-.26-1.33-.26-2.85-.45,1.88-2.16,3.12-4.35,3.12ZM276.45,38.78c0,1.52,1.19,2.24,2.66,2.24,2.16,0,3.83-1.64,3.83-3.97v-1.17l-2.47.31c-2.64.31-4.02,1-4.02,2.59Z"/><path class="cls-3" d="M267.09,41.89l-4.71-11.8h1.71l3.88,10.11,3.92-10.11h1.64l-4.71,11.8h-1.74Z"/><path class="cls-3" d="M255.44,42.25c-3.43,0-5.83-2.59-5.83-6.25s2.4-6.25,5.83-6.25,5.83,2.59,5.83,6.25-2.4,6.25-5.83,6.25ZM251.26,36c0,2.88,1.71,4.88,4.19,4.88s4.19-2,4.19-4.88-1.71-4.88-4.19-4.88-4.19,2-4.19,4.88Z"/><path class="cls-3" d="M237.11,41.89v-11.8h1.64l-.07,3.5c.4-2.43,1.78-3.83,4.11-3.83,2.62,0,4.23,1.83,4.23,4.88v7.25h-1.64v-7.02c0-2.45-1.12-3.78-3.11-3.78-2.31,0-3.52,1.74-3.52,4.9v5.9h-1.64Z"/><path class="cls-3" d="M224.17,41.89v-11.8h1.64l-.07,3.5c.4-2.43,1.78-3.83,4.12-3.83,2.62,0,4.23,1.83,4.23,4.88v7.25h-1.64v-7.02c0-2.45-1.12-3.78-3.12-3.78-2.31,0-3.52,1.74-3.52,4.9v5.9h-1.64Z"/><path class="cls-3" d="M219,41.89v-16.65h1.69v16.65h-1.69Z"/><path class="cls-3" d="M302.11,17.53c-3.35,0-5.78-2.66-5.78-6.3s2.43-6.3,5.78-6.3c4.04,0,5.85,3.76,5.49,6.68h-9.63c.02,2.69,1.76,4.61,4.16,4.61,1.83,0,3.38-1.07,3.88-2.66l1.38.21c-.55,2.16-2.61,3.76-5.28,3.76ZM297.99,10.39h8.04c0-2.4-1.57-4.21-3.92-4.21s-3.95,1.74-4.11,4.21Z"/><path class="cls-3" d="M288.76,17.12l-4.71-11.8h1.71l3.88,10.11,3.92-10.11h1.64l-4.71,11.8h-1.74Z"/><path class="cls-3" d="M280.15,17.12V5.33h1.64v11.8h-1.64ZM279.63,1.66c0-.74.57-1.33,1.33-1.33s1.33.59,1.33,1.33c0,.78-.57,1.36-1.33,1.36s-1.33-.57-1.33-1.36Z"/><path class="cls-3" d="M277.27,16.98c-2.04.74-4.59.24-4.59-3.23v-7.06h-2.4v-1.36h2.4v-2.93h1.64v2.93h3.23v1.36h-3.23v6.97c0,2.28,1.55,2.52,2.88,1.97l.07,1.36Z"/><path class="cls-3" d="M262.48,17.38c-2.21,0-3.83-1.19-3.83-3.26,0-2.19,1.85-3.33,5.52-3.73l2.57-.29v-.57c0-2.02-1.09-3.23-3-3.23-1.76,0-2.97,1.09-3.16,2.95l-1.57-.05c.24-2.54,2.09-4.23,4.76-4.23s4.59,1.78,4.59,4.64v4.23c0,1.28.17,2.5.33,3.28h-1.59c-.14-.57-.26-1.33-.26-2.85-.45,1.88-2.16,3.12-4.35,3.12ZM260.27,14.01c0,1.52,1.19,2.24,2.66,2.24,2.16,0,3.83-1.64,3.83-3.97v-1.17l-2.47.31c-2.64.31-4.02,1-4.02,2.59Z"/><path class="cls-3" d="M250.99,17.53c-3.35,0-5.78-2.66-5.78-6.3s2.43-6.3,5.78-6.3c4.04,0,5.85,3.76,5.49,6.68h-9.63c.02,2.69,1.76,4.61,4.16,4.61,1.83,0,3.38-1.07,3.88-2.66l1.38.21c-.55,2.16-2.62,3.76-5.28,3.76ZM246.88,10.39h8.04c0-2.4-1.57-4.21-3.92-4.21s-3.95,1.74-4.11,4.21Z"/><path class="cls-3" d="M237.84,17.12V5.33h1.64l-.05,3.81c.48-3.04,2.57-4.21,4.66-3.88v1.59c-2.69-.33-4.61,1.52-4.61,5.11v5.16h-1.64Z"/><path class="cls-3" d="M227.3,17.6c-4.78,0-8.3-3.71-8.3-8.8s3.52-8.8,8.3-8.8c4.02,0,7.23,2.64,7.59,6.25l-1.67.14c-.33-2.85-2.83-4.9-5.92-4.9-3.78,0-6.56,3.07-6.56,7.3s2.78,7.3,6.56,7.3c3.11,0,5.66-2.16,5.99-5.14l1.66.14c-.38,3.76-3.61,6.49-7.66,6.49Z"/></svg>