<?xml version="1.0" encoding="UTF-8"?>
<svg id="Layer_2" data-name="Layer 2" xmlns="http://www.w3.org/2000/svg" width="31" height="20" viewBox="0 0 31 20">
  <defs>
    <style>
      .cls-1 {
        fill: #fff;
        stroke-width: 0px;
      }
    </style>
  </defs>
  <g id="loader-dc">
    <path class="cls-1" d="M5,.2H.2v4.1h4.8c3.1,0,5.6,2.5,5.6,5.6s-2.5,5.6-5.6,5.6H.2v4.1h4.8c5.3,0,9.7-4.3,9.7-9.7S10.4.1,5,.1h0Z"/>
    <path class="cls-1" d="M26,.2h4.8v4.1h-4.8c-3.1,0-5.6,2.5-5.6,5.6s2.5,5.6,5.6,5.6h4.8v4.1h-4.8c-5.3,0-9.7-4.3-9.7-9.7S20.6.1,26,.1h0Z"/>
  </g>
</svg>