<?xml version="1.0" encoding="UTF-8"?>
<svg id="Layer_2" data-name="Layer 2" xmlns="http://www.w3.org/2000/svg" width="59" height="20" viewBox="0 0 59 20">
  <defs>
    <style>
      .cls-1 {
        fill: #fff;
        stroke-width: 0px;
      }
    </style>
  </defs>
  <g id="loader-dojo">
    <path class="cls-1" d="M.5.2C5.8.2,10.2,4.5,10.2,9.9S5.8,19.5.5,19.5V.2Z"/>
    <path class="cls-1" d="M48.8,19.5c5.3,0,9.7-4.3,9.7-9.7S54.2.2,48.8.2s-9.7,4.3-9.7,9.7,4.3,9.7,9.7,9.7Z"/>
    <path class="cls-1" d="M29.5.1v19.4c5.3,0,9.7-4.3,9.7-9.7V.1h-9.7Z"/>
    <path class="cls-1" d="M21,6.7l2.5-5.8-1.4-.4-1.4,6.2c0,0,.1,0,.2,0h0Z"/>
    <path class="cls-1" d="M21.9,7.2l4.2-4.7-1.2-.8-3.2,5.4c0,0,.1,0,.2.1Z"/>
    <path class="cls-1" d="M22.6,7.9l5.4-3.2-.8-1.2-4.7,4.2c0,0,0,.1.1.2Z"/>
    <path class="cls-1" d="M23.1,8.9l6.2-1.4-.4-1.4-5.8,2.5c0,0,0,.1,0,.2h0Z"/>
    <path class="cls-1" d="M23.2,9.7h0v.2l6.3.6v-1.4l-6.3.6h0Z"/>
    <path class="cls-1" d="M23.1,10.8c0,0,0,.1,0,.2l5.8,2.5.4-1.4-6.2-1.4h0Z"/>
    <path class="cls-1" d="M22.6,11.7c0,0,0,.1-.1.2l4.7,4.2.8-1.2-5.4-3.2Z"/>
    <path class="cls-1" d="M21.9,12.5c0,0-.1,0-.2.1l3.2,5.4,1.2-.8-4.2-4.7Z"/>
    <path class="cls-1" d="M21,13c0,0-.1,0-.2,0l1.4,6.2,1.4-.4-2.5-5.8h0Z"/>
    <path class="cls-1" d="M19.8,13.2h-.1l-.6,6.3h1.4l-.6-6.3h-.1Z"/>
    <path class="cls-1" d="M18.7,13l-2.5,5.8,1.4.4,1.4-6.2c0,0-.1,0-.2,0h0Z"/>
    <path class="cls-1" d="M17.7,12.5l-4.2,4.7,1.2.8,3.2-5.4c0,0-.1,0-.2-.1Z"/>
    <path class="cls-1" d="M17,11.8l-5.4,3.2.8,1.2,4.7-4.2c0,0,0-.1-.1-.2Z"/>
    <path class="cls-1" d="M16.6,10.8l-6.2,1.4.4,1.4,5.8-2.5c0,0,0-.1,0-.2h0Z"/>
    <path class="cls-1" d="M16.4,9.9h0c0-.1-6.3-.7-6.3-.7v1.4l6.3-.6h0Z"/>
    <path class="cls-1" d="M16.6,8.7l-5.8-2.5-.4,1.4,6.2,1.4c0,0,0-.1,0-.2h0Z"/>
    <path class="cls-1" d="M17.1,7.8l-4.7-4.2-.8,1.2,5.4,3.2c0,0,0-.1.1-.2Z"/>
    <path class="cls-1" d="M17.9,7l-3.2-5.4-1.2.8,4.2,4.7c0,0,.1,0,.2-.1Z"/>
    <path class="cls-1" d="M18.9,6.6l-1.4-6.2-1.4.4,2.5,5.8c0,0,.1,0,.2,0h0Z"/>
    <path class="cls-1" d="M19.8,6.5h.1l.6-6.3h-1.4l.6,6.3h.1Z"/>
  </g>
</svg>