<?xml version="1.0" encoding="UTF-8"?>
<svg id="Layer_2" data-name="Layer 2" xmlns="http://www.w3.org/2000/svg" width="42" height="20" viewBox="0 0 42 20">
  <defs>
    <style>
      .cls-1 {
        fill: #fff;
        stroke-width: 0px;
      }
    </style>
  </defs>
  <g id="loader-hiragana">
    <path class="cls-1" d="M5.3,15.5c1,1.6,2.9,2.3,5.4,2.4,2.4,0,7.2,0,9.8-.2-.2.4-.5,1.2-.5,1.7-2.4,0-6.9.1-9.3,0-2.8-.1-4.8-.9-6.2-2.6-1,.9-2.1,1.9-3.3,2.8l-.9-1.6c1-.7,2.2-1.6,3.3-2.5v-5.5H.6v-1.5h4.6v7h0ZM4.6,5c-.7-1-2.3-2.5-3.7-3.4l1.2-1c1.4.9,3,2.3,3.8,3.4l-1.3,1.1ZM11.8,5.8c.1-.5.2-1.2.3-1.7h-5.8v-1.4h3.7c-.3-.7-.8-1.5-1.4-2.2l1.2-.5c.7.7,1.4,1.7,1.6,2.5l-.6.2h3.6c.5-.8,1.2-2,1.5-2.8l1.6.4c-.5.8-1,1.7-1.5,2.4h3.9v1.4h-6.2c-.2.6-.4,1.2-.6,1.7h5.1v10.3h-10.4V5.8h3.7ZM16.8,7.1h-7.2v1.8h7.2v-1.8ZM16.8,10.1h-7.2v1.8h7.2v-1.8ZM16.8,13.1h-7.2v1.8h7.2v-1.8Z"/>
    <path class="cls-1" d="M5.3,15.5c1,1.6,2.9,2.3,5.4,2.4,2.4,0,7.2,0,9.8-.2-.2.4-.5,1.2-.5,1.7-2.4,0-6.9.1-9.3,0-2.8-.1-4.8-.9-6.2-2.6-1,.9-2.1,1.9-3.3,2.8l-.9-1.6c1-.7,2.2-1.6,3.3-2.5v-5.5H.6v-1.5h4.6v7h0ZM4.6,5c-.7-1-2.3-2.5-3.7-3.4l1.2-1c1.4.9,3,2.3,3.8,3.4l-1.3,1.1ZM11.8,5.8c.1-.5.2-1.2.3-1.7h-5.8v-1.4h3.7c-.3-.7-.8-1.5-1.4-2.2l1.2-.5c.7.7,1.4,1.7,1.6,2.5l-.6.2h3.6c.5-.8,1.2-2,1.5-2.8l1.6.4c-.5.8-1,1.7-1.5,2.4h3.9v1.4h-6.2c-.2.6-.4,1.2-.6,1.7h5.1v10.3h-10.4V5.8h3.7ZM16.8,7.1h-7.2v1.8h7.2v-1.8ZM16.8,10.1h-7.2v1.8h7.2v-1.8ZM16.8,13.1h-7.2v1.8h7.2v-1.8Z"/>
    <path class="cls-1" d="M28.6,12.8c-2.2,1.1-4.6,2.3-6.4,3.1l-.6-1.6c.8-.4,1.9-.8,3-1.3v-6.8h-2.6v-1.5h2.6V.1h1.5v4.5h2.4v1.5h-2.4v6.1l2.2-1,.4,1.4h0ZM32.7,10.3c-.3.5-.6,1-.9,1.5h9.4s0,.4,0,.7c-.3,4.5-.7,6.2-1.3,6.8-.3.4-.7.5-1.2.5-.5,0-1.3,0-2.2,0,0-.4-.2-1-.4-1.3.8,0,1.5,0,1.9,0s.5,0,.7-.2c.4-.4.7-1.8,1-5.2h-1.7c-.9,2.6-2.6,5.4-4.5,6.8-.3-.3-.8-.7-1.2-.9,1.8-1.2,3.4-3.5,4.3-5.9h-2.1c-1.2,2.3-3.3,4.6-5.3,5.9-.2-.4-.7-.7-1.1-1,1.8-1,3.7-2.9,4.9-4.9h-2.2c-.9,1-1.9,1.8-2.8,2.5-.2-.3-.8-.8-1.1-1,1.7-1,3.3-2.6,4.3-4.4h-3.1v-1.4h13.7v1.4h-9ZM40.1,7.7h-10V.6h10v7.1ZM38.6,1.9h-7v1.7h7v-1.7ZM38.6,4.7h-7v1.7h7v-1.7Z"/>
    <path class="cls-1" d="M28.6,12.8c-2.2,1.1-4.6,2.3-6.4,3.1l-.6-1.6c.8-.4,1.9-.8,3-1.3v-6.8h-2.6v-1.5h2.6V.1h1.5v4.5h2.4v1.5h-2.4v6.1l2.2-1,.4,1.4h0ZM32.7,10.3c-.3.5-.6,1-.9,1.5h9.4s0,.4,0,.7c-.3,4.5-.7,6.2-1.3,6.8-.3.4-.7.5-1.2.5-.5,0-1.3,0-2.2,0,0-.4-.2-1-.4-1.3.8,0,1.5,0,1.9,0s.5,0,.7-.2c.4-.4.7-1.8,1-5.2h-1.7c-.9,2.6-2.6,5.4-4.5,6.8-.3-.3-.8-.7-1.2-.9,1.8-1.2,3.4-3.5,4.3-5.9h-2.1c-1.2,2.3-3.3,4.6-5.3,5.9-.2-.4-.7-.7-1.1-1,1.8-1,3.7-2.9,4.9-4.9h-2.2c-.9,1-1.9,1.8-2.8,2.5-.2-.3-.8-.8-1.1-1,1.7-1,3.3-2.6,4.3-4.4h-3.1v-1.4h13.7v1.4h-9ZM40.1,7.7h-10V.6h10v7.1ZM38.6,1.9h-7v1.7h7v-1.7ZM38.6,4.7h-7v1.7h7v-1.7Z"/>
  </g>
</svg>