<?xml version="1.0" encoding="UTF-8"?><svg id="Layer_1" xmlns="http://www.w3.org/2000/svg" width="300" height="300" xmlns:xlink="http://www.w3.org/1999/xlink" viewBox="0 0 300 300"><defs><style>.cls-1{clip-path:url(#clippath);}.cls-2{stroke-width:0px;}.cls-2,.cls-3,.cls-4{fill:none;}.cls-3{stroke:#646464;}.cls-3,.cls-4{stroke-width:5px;}.cls-4{stroke:#191919;}</style><clipPath id="clippath"><path class="cls-2" d="M253.37,139.25c0,55.26-44.77,100.07-100.01,100.07s-99.99-44.81-99.99-100.07h200Z"/></clipPath></defs><g class="cls-1"><line class="cls-3" x1="231.63" y1="239.32" x2="231.63" y2="139.06"/><line class="cls-3" x1="221.5" y1="239.32" x2="221.5" y2="139.06"/><line class="cls-3" x1="211.38" y1="239.32" x2="211.38" y2="139.06"/><line class="cls-3" x1="201.25" y1="239.32" x2="201.25" y2="139.06"/><line class="cls-3" x1="251.89" y1="239.32" x2="251.89" y2="139.06"/><line class="cls-3" x1="241.76" y1="239.32" x2="241.76" y2="139.06"/><line class="cls-3" x1="150.61" y1="239.32" x2="150.61" y2="139.06"/><line class="cls-3" x1="140.48" y1="239.32" x2="140.48" y2="139.06"/><line class="cls-3" x1="130.36" y1="239.32" x2="130.36" y2="139.06"/><line class="cls-3" x1="120.23" y1="239.32" x2="120.23" y2="139.06"/><line class="cls-3" x1="191.12" y1="239.32" x2="191.12" y2="139.06"/><line class="cls-3" x1="180.99" y1="239.32" x2="180.99" y2="139.06"/><line class="cls-3" x1="170.87" y1="239.32" x2="170.87" y2="139.06"/><line class="cls-3" x1="160.74" y1="239.32" x2="160.74" y2="139.06"/><line class="cls-3" x1="69.59" y1="239.32" x2="69.59" y2="139.06"/><line class="cls-3" x1="59.47" y1="239.32" x2="59.47" y2="139.06"/><line class="cls-3" x1="110.1" y1="239.32" x2="110.1" y2="139.06"/><line class="cls-3" x1="99.97" y1="239.32" x2="99.97" y2="139.06"/><line class="cls-3" x1="89.85" y1="239.32" x2="89.85" y2="139.06"/><line class="cls-3" x1="79.72" y1="239.32" x2="79.72" y2="139.06"/></g><path class="cls-4" d="M140.44,246.21c-52.03-1.32-93.81-43.89-93.81-96.22s41.78-94.88,93.81-96.2v192.42Z"/></svg>