<?xml version="1.0" encoding="UTF-8"?><svg id="Layer_1" xmlns="http://www.w3.org/2000/svg" width="300" height="300" xmlns:xlink="http://www.w3.org/1999/xlink" viewBox="0 0 300 300"><defs><style>.cls-1{clip-path:url(#clippath);}.cls-2{stroke-width:0px;}.cls-2,.cls-3,.cls-4{fill:none;}.cls-3{stroke:#646464;}.cls-3,.cls-4{stroke-width:5px;}.cls-4{stroke:#191919;}</style><clipPath id="clippath"><path class="cls-2" d="M138.76,16.32c55.26,0,100.07,44.77,100.07,100.01s-44.81,99.99-100.07,99.99V16.32Z"/></clipPath></defs><path class="cls-4" d="M154.98,283.33c-52.03-1.32-93.81-43.89-93.81-96.22v-95.01s67.46-.53,93.81-1.2v192.42Z"/><g class="cls-1"><line class="cls-3" x1="238.83" y1="38.06" x2="138.57" y2="38.06"/><line class="cls-3" x1="238.83" y1="48.19" x2="138.57" y2="48.19"/><line class="cls-3" x1="238.83" y1="58.31" x2="138.57" y2="58.31"/><line class="cls-3" x1="238.83" y1="68.44" x2="138.57" y2="68.44"/><line class="cls-3" x1="238.83" y1="17.8" x2="138.57" y2="17.8"/><line class="cls-3" x1="238.83" y1="27.93" x2="138.57" y2="27.93"/><line class="cls-3" x1="238.83" y1="119.08" x2="138.57" y2="119.08"/><line class="cls-3" x1="238.83" y1="129.21" x2="138.57" y2="129.21"/><line class="cls-3" x1="238.83" y1="139.33" x2="138.57" y2="139.33"/><line class="cls-3" x1="238.83" y1="149.46" x2="138.57" y2="149.46"/><line class="cls-3" x1="238.83" y1="78.57" x2="138.57" y2="78.57"/><line class="cls-3" x1="238.83" y1="88.7" x2="138.57" y2="88.7"/><line class="cls-3" x1="238.83" y1="98.82" x2="138.57" y2="98.82"/><line class="cls-3" x1="238.83" y1="108.95" x2="138.57" y2="108.95"/><line class="cls-3" x1="238.83" y1="200.1" x2="138.57" y2="200.1"/><line class="cls-3" x1="238.83" y1="210.22" x2="138.57" y2="210.22"/><line class="cls-3" x1="238.83" y1="159.59" x2="138.57" y2="159.59"/><line class="cls-3" x1="238.83" y1="169.72" x2="138.57" y2="169.72"/><line class="cls-3" x1="238.83" y1="179.84" x2="138.57" y2="179.84"/><line class="cls-3" x1="238.83" y1="189.97" x2="138.57" y2="189.97"/></g></svg>