<?xml version="1.0" encoding="UTF-8"?><svg id="Layer_1" xmlns="http://www.w3.org/2000/svg" width="300" height="300" xmlns:xlink="http://www.w3.org/1999/xlink" viewBox="0 0 300 300"><defs><style>.cls-1{clip-path:url(#clippath);}.cls-2{stroke-width:0px;}.cls-2,.cls-3,.cls-4{fill:none;}.cls-3{stroke:#646464;}.cls-3,.cls-4{stroke-width:5px;}.cls-4{stroke:#191919;}</style><clipPath id="clippath"><path class="cls-2" d="M138.76,87.11c55.26,0,100.07,44.77,100.07,100.01s-44.81,99.99-100.07,99.99V87.11Z"/></clipPath></defs><path class="cls-4" d="M154.98,205.31c-52.03-1.32-93.81-43.89-93.81-96.22S102.95,14.21,154.98,12.89v192.42Z"/><g class="cls-1"><line class="cls-3" x1="238.83" y1="108.86" x2="138.57" y2="108.86"/><line class="cls-3" x1="238.83" y1="118.98" x2="138.57" y2="118.98"/><line class="cls-3" x1="238.83" y1="129.11" x2="138.57" y2="129.11"/><line class="cls-3" x1="238.83" y1="139.24" x2="138.57" y2="139.24"/><line class="cls-3" x1="238.83" y1="88.6" x2="138.57" y2="88.6"/><line class="cls-3" x1="238.83" y1="98.73" x2="138.57" y2="98.73"/><line class="cls-3" x1="238.83" y1="189.88" x2="138.57" y2="189.88"/><line class="cls-3" x1="238.83" y1="200" x2="138.57" y2="200"/><line class="cls-3" x1="238.83" y1="210.13" x2="138.57" y2="210.13"/><line class="cls-3" x1="238.83" y1="220.26" x2="138.57" y2="220.26"/><line class="cls-3" x1="238.83" y1="149.37" x2="138.57" y2="149.37"/><line class="cls-3" x1="238.83" y1="159.49" x2="138.57" y2="159.49"/><line class="cls-3" x1="238.83" y1="169.62" x2="138.57" y2="169.62"/><line class="cls-3" x1="238.83" y1="179.75" x2="138.57" y2="179.75"/><line class="cls-3" x1="238.83" y1="270.89" x2="138.57" y2="270.89"/><line class="cls-3" x1="238.83" y1="281.02" x2="138.57" y2="281.02"/><line class="cls-3" x1="238.83" y1="230.38" x2="138.57" y2="230.38"/><line class="cls-3" x1="238.83" y1="240.51" x2="138.57" y2="240.51"/><line class="cls-3" x1="238.83" y1="250.64" x2="138.57" y2="250.64"/><line class="cls-3" x1="238.83" y1="260.77" x2="138.57" y2="260.77"/></g></svg>